<?xml version="1.0" encoding="utf-8"?>
<!-- Generator: Adobe Illustrator 18.0.0, SVG Export Plug-In . SVG Version: 6.00 Build 0)  -->
<svg version="1.1" id="Layer_1" xmlns="http://www.w3.org/2000/svg" xmlns:xlink="http://www.w3.org/1999/xlink" x="0px" y="0px"
	 viewBox="0 0 112.2 82" enable-background="new 0 0 112.2 82" xml:space="preserve">
<path fill-rule="evenodd" clip-rule="evenodd" fill="none" stroke="#000000" stroke-width="2" stroke-miterlimit="10" d="M53.1,12.2
	l2.4,15"/>
<path fill-rule="evenodd" clip-rule="evenodd" fill="none" stroke="#000000" stroke-width="2" stroke-miterlimit="10" d="M25.9,27.7
	L42.3,36"/>
<path fill-rule="evenodd" clip-rule="evenodd" fill="none" stroke="#000000" stroke-width="2" stroke-miterlimit="10" d="M67.8,52.7
	L85.1,70"/>
<path fill-rule="evenodd" clip-rule="evenodd" fill="none" stroke="#000000" stroke-width="2" stroke-miterlimit="10" d="M46.5,54.8
	L30.2,72.4"/>
<path fill-rule="evenodd" clip-rule="evenodd" fill="none" stroke="#000000" stroke-width="2" stroke-miterlimit="10" d="M89.2,11.4
	L67.8,32"/>
<path fill-rule="evenodd" clip-rule="evenodd" fill="none" stroke="#000000" stroke-width="2" stroke-miterlimit="10" d="M56.1,26.9
	c8.6,0,15.6,7,15.6,15.7c0,8.7-7,15.7-15.6,15.7s-15.6-7-15.6-15.7C40.5,34,47.5,26.9,56.1,26.9z"/>
<path fill-rule="evenodd" clip-rule="evenodd" fill="none" stroke="#000000" stroke-width="2" stroke-miterlimit="10" d="M91.6,1
	c3.3,0,5.9,2.7,5.9,6c0,3.3-2.6,6-5.9,6c-3.3,0-5.9-2.7-5.9-6C85.7,3.7,88.3,1,91.6,1z"/>
<path fill-rule="evenodd" clip-rule="evenodd" fill="none" stroke="#000000" stroke-width="2" stroke-miterlimit="10" d="M51.8,1
	c3.3,0,5.9,2.7,5.9,6c0,3.3-2.7,6-5.9,6c-3.3,0-5.9-2.7-5.9-6C45.9,3.7,48.6,1,51.8,1z"/>
<path fill-rule="evenodd" clip-rule="evenodd" fill="none" stroke="#000000" stroke-width="2" stroke-miterlimit="10" d="M20.7,20.5
	c3.3,0,5.9,2.7,5.9,5.9c0,3.3-2.6,5.9-5.9,5.9c-3.3,0-5.9-2.7-5.9-5.9C14.7,23.1,17.4,20.5,20.7,20.5z"/>
<path fill-rule="evenodd" clip-rule="evenodd" fill="none" stroke="#000000" stroke-width="2" stroke-miterlimit="10" d="M26,69.1
	c3.3,0,5.9,2.7,5.9,6c0,3.3-2.6,6-5.9,6c-3.3,0-5.9-2.7-5.9-6C20.1,71.8,22.8,69.1,26,69.1z"/>
<path fill-rule="evenodd" clip-rule="evenodd" fill="none" stroke="#000000" stroke-width="2" stroke-miterlimit="10" d="M87.3,69.1
	c3.3,0,5.9,2.7,5.9,6c0,3.3-2.7,6-5.9,6c-3.3,0-5.9-2.7-5.9-6C81.4,71.8,84,69.1,87.3,69.1z"/>
</svg>
