<?xml version="1.0" encoding="utf-8"?>
<!-- Generator: Adobe Illustrator 18.0.0, SVG Export Plug-In . SVG Version: 6.00 Build 0)  -->
<svg version="1.1" id="Layer_1" xmlns="http://www.w3.org/2000/svg" xmlns:xlink="http://www.w3.org/1999/xlink" x="0px" y="0px"
	 viewBox="0 0 112.2 82" enable-background="new 0 0 112.2 82" xml:space="preserve">
<path fill-rule="evenodd" clip-rule="evenodd" fill="none" stroke="#000000" stroke-width="2" stroke-linecap="round" stroke-linejoin="round" stroke-miterlimit="10" d="
	M4.6,1h103.1c1.9,0,3.4,1.5,3.4,3.4v0.1c0,1.9-1.5,3.4-3.4,3.4H4.6C2.7,8,1.1,6.5,1.1,4.5V4.4C1.1,2.5,2.7,1,4.6,1z"/>
<path fill-rule="evenodd" clip-rule="evenodd" fill="none" stroke="#000000" stroke-width="2" stroke-linecap="round" stroke-linejoin="round" stroke-miterlimit="10" d="
	M4.6,56h103.1c1.9,0,3.4,1.5,3.4,3.4v0.1c0,1.9-1.5,3.4-3.4,3.4H4.6c-1.9,0-3.4-1.5-3.4-3.4v-0.1C1.1,57.5,2.7,56,4.6,56z"/>
<path d="M31.3,38.9c1.8,0,3-0.8,3.8-1.7v0.4c0,0.6,0.5,1.1,1.3,1.1c0.7,0,1.3-0.6,1.3-1.3v-5.8c0-1.5-0.4-2.8-1.2-3.6
	c-0.8-0.8-2.1-1.3-3.8-1.3c-1.5,0-2.6,0.3-3.7,0.7c-0.4,0.2-0.7,0.6-0.7,1.1c0,0.6,0.5,1.1,1.1,1.1c0.1,0,0.3,0,0.4-0.1
	c0.7-0.3,1.5-0.5,2.6-0.5c1.9,0,2.9,0.9,2.9,2.5V32c-0.9-0.3-1.8-0.5-3.1-0.5c-2.8,0-4.8,1.2-4.8,3.8v0
	C27.2,37.6,29.2,38.9,31.3,38.9z M32.1,37c-1.3,0-2.2-0.6-2.2-1.8v0c0-1.2,1-1.9,2.7-1.9c1,0,1.9,0.2,2.6,0.5v0.8
	C35.1,35.9,33.8,37,32.1,37z"/>
<path d="M50.6,37.4c0,0.7,0.6,1.3,1.3,1.3c0.7,0,1.3-0.6,1.3-1.3v-0.6c0.8,1.1,2,2.1,3.9,2.1c2.7,0,5.3-2.2,5.3-6.1v0
	c0-3.9-2.6-6.1-5.3-6.1c-1.9,0-3.1,1-3.9,2.2v-5.2c0-0.8-0.6-1.3-1.3-1.3s-1.3,0.6-1.3,1.3V37.4z M56.6,36.6c-1.8,0-3.4-1.5-3.4-3.7
	v0c0-2.2,1.6-3.7,3.4-3.7c1.8,0,3.3,1.5,3.3,3.7v0C59.9,35.1,58.4,36.6,56.6,36.6z"/>
<path d="M80.4,38.9c1.9,0,3.2-0.7,4.2-1.7c0.2-0.2,0.4-0.5,0.4-0.8c0-0.6-0.5-1.2-1.1-1.2c-0.3,0-0.6,0.2-0.7,0.3
	c-0.7,0.6-1.5,1-2.6,1c-2,0-3.4-1.7-3.4-3.7v0c0-2,1.4-3.7,3.3-3.7c1,0,1.8,0.4,2.5,1c0.2,0.1,0.5,0.3,0.8,0.3
	c0.7,0,1.2-0.5,1.2-1.2c0-0.4-0.2-0.8-0.4-0.9c-1-0.9-2.2-1.5-4-1.5c-3.5,0-6,2.8-6,6.1v0C74.5,36.2,77,38.9,80.4,38.9z"/>
<path fill-rule="evenodd" clip-rule="evenodd" fill="none" stroke="#000000" stroke-width="2" stroke-linecap="round" stroke-linejoin="round" stroke-miterlimit="10" d="
	M56.1,72.4V63"/>
<path fill-rule="evenodd" clip-rule="evenodd" fill="none" stroke="#000000" stroke-width="2" stroke-linecap="round" stroke-linejoin="round" stroke-miterlimit="10" d="
	M38.7,81l17.5-8.3L71.7,81"/>
<path fill-rule="evenodd" clip-rule="evenodd" fill="none" stroke="#000000" stroke-width="2" stroke-linecap="round" stroke-linejoin="round" stroke-miterlimit="10" d="
	M5.1,8h103v48H5.1V8z"/>
</svg>
