<?xml version="1.0" encoding="utf-8"?>
<!-- Generator: Adobe Illustrator 18.0.0, SVG Export Plug-In . SVG Version: 6.00 Build 0)  -->
<svg version="1.1" id="Layer_1" xmlns="http://www.w3.org/2000/svg" xmlns:xlink="http://www.w3.org/1999/xlink" x="0px" y="0px"
	 viewBox="0.2 339.1 593.3 164.9" enable-background="new 0.2 339.1 593.3 164.9" xml:space="preserve">
<g>
	<g>
		<defs>
			<rect id="SVGID_1_" x="0.2" y="339.1" width="593.3" height="164.9"/>
		</defs>
		<clipPath id="SVGID_2_">
			<use xlink:href="#SVGID_1_"  overflow="visible"/>
		</clipPath>
		<path clip-path="url(#SVGID_2_)" fill="#48B749" d="M67.6,341l58.5,42.5c0.9,0.6,1.6,1.3,2.1,2.1c1.1,1.6,1.6,3.4,1.6,5.2
			c0,1.8-0.6,3.7-1.7,5.2c-0.6,0.8-1.2,1.5-2.1,2.1l0,0l-58.6,42.6c-1.6,1.2-3.5,1.7-5.3,1.7c-1.5,0-2.9-0.4-4.1-1
			c-1.3-0.6-2.4-1.6-3.2-2.7c-1-1.4-1.7-3.2-1.7-5.3v-85.3l0,0c0-2.2,0.8-4.1,2-5.6c0.9-1.1,2-1.9,3.2-2.5c1.2-0.6,2.5-0.9,3.9-0.9
			l0,0C64,339.1,65.9,339.7,67.6,341L67.6,341 M504.8,478.2v-20.9c0-2.6,2.1-4.7,4.7-4.7c2.6,0,4.7,2.1,4.7,4.7v1
			c4.5-3.7,10.3-5.9,16.5-5.9c1.5,0,2.9,0.1,4.4,0.4s2.9,0.6,4.3,1.1c2.5,0.9,3.7,3.6,2.9,6c-0.9,2.5-3.6,3.8-6,2.9
			c-0.9-0.3-1.8-0.5-2.7-0.7s-1.8-0.2-2.9-0.2c-4.6,0-8.7,1.8-11.7,4.8c-3,2.9-4.8,7-4.8,11.4V499c0,2.6-2.1,4.7-4.7,4.7
			c-2.6,0-4.7-2.1-4.7-4.7V478.2z M471.6,452.4c6.2,0,11.9,2.2,16.3,5.8v-0.9c0-2.6,2.1-4.7,4.7-4.7c2.6,0,4.7,2.1,4.7,4.7v41.6
			c0,2.6-2.1,4.7-4.7,4.7c-2.6,0-4.7-2.1-4.7-4.7V498c-4.4,3.6-10.1,5.8-16.3,5.8c-7.1,0-13.5-2.9-18.2-7.5
			c-4.7-4.7-7.5-11.1-7.5-18.2c0-7.1,2.9-13.5,7.5-18.2C458.1,455.3,464.5,452.4,471.6,452.4 M483.2,466.6c-2.9-2.9-7-4.8-11.5-4.8
			s-8.6,1.8-11.5,4.8c-2.9,2.9-4.8,7-4.8,11.5c0,4.5,1.8,8.6,4.8,11.5c2.9,2.9,7,4.8,11.5,4.8s8.6-1.8,11.5-4.8
			c2.9-2.9,4.8-7,4.8-11.4v-0.1C487.9,473.6,486.1,469.6,483.2,466.6 M567.8,452.4c6.2,0,11.8,2.2,16.3,5.8v-19.1
			c0-2.6,2.1-4.7,4.7-4.7c2.6,0,4.7,2.1,4.7,4.7V499c0,2.6-2.1,4.7-4.7,4.7s-4.7-2.1-4.7-4.7v-0.9c-4.4,3.6-10.1,5.8-16.3,5.8
			c-7.1,0-13.5-2.9-18.2-7.5c-4.7-4.7-7.5-11.1-7.5-18.2s2.9-13.5,7.5-18.2C554.2,455.3,560.7,452.4,567.8,452.4 M579.3,466.6
			c-2.9-2.9-7-4.8-11.5-4.8c-4.5,0-8.6,1.8-11.5,4.8c-2.9,2.9-4.8,7-4.8,11.5c0,4.5,1.8,8.6,4.8,11.5c2.9,2.9,7,4.8,11.5,4.8
			c4.5,0,8.6-1.8,11.5-4.8c2.9-2.9,4.8-7,4.8-11.5V478C584.1,473.6,582.2,469.6,579.3,466.6 M427.7,499.2c0,2.6-2.1,4.7-4.7,4.7
			c-2.6,0-4.7-2.1-4.7-4.7V481l-28.5-39.1c-1.5-2.1-1.1-5.1,1.1-6.6c2.1-1.5,5.1-1.1,6.6,1.1l25.5,35.1l25.5-35.1
			c1.5-2.1,4.5-2.6,6.6-1.1c2.1,1.5,2.6,4.5,1.1,6.6L427.8,481v18.2H427.7z M121.9,389.1l-58.5-42.5l0,0l-0.2-0.1
			c-0.4-0.3-0.8-0.4-1.2-0.4l0,0c-0.3,0-0.6,0.1-0.9,0.2c-0.3,0.1-0.5,0.3-0.7,0.5c-0.2,0.3-0.4,0.7-0.4,1.2l0,0v85.3
			c0,0.4,0.1,0.8,0.4,1.1c0.2,0.3,0.4,0.5,0.7,0.6s0.6,0.2,0.9,0.2c0.4,0,0.7-0.1,1.1-0.4l58.6-42.6l0,0l0,0
			c0.2-0.1,0.3-0.3,0.5-0.5c0.2-0.3,0.4-0.7,0.4-1.1s-0.1-0.8-0.3-1.1C122.2,389.4,122,389.2,121.9,389.1"/>
	</g>
	<g>
		<defs>
			<rect id="SVGID_3_" x="0.2" y="339.1" width="593.3" height="164.9"/>
		</defs>
		<clipPath id="SVGID_4_">
			<use xlink:href="#SVGID_3_"  overflow="visible"/>
		</clipPath>
		<path clip-path="url(#SVGID_4_)" fill="#58595B" d="M3.7,425.9l32.1-23.3h0.1c1.6-1.2,3.3-1.7,5-1.7c1.3,0,2.5,0.3,3.6,0.8
			c1.1,0.5,2.1,1.3,3,2.3c1.1,1.4,1.9,3.2,1.9,5.3v46.9c0,1.9-0.6,3.6-1.6,5c-0.8,1.1-1.8,2-3,2.6c-1.2,0.6-2.5,0.9-3.8,0.9
			c-1.7,0-3.4-0.5-4.9-1.6L3.8,439.6c-0.8-0.6-1.5-1.2-2-2c-1-1.4-1.6-3.1-1.6-4.8s0.5-3.4,1.5-4.9l0,0
			C2.2,427.2,2.9,426.5,3.7,425.9 M176.6,452.4c7.1,0,13.5,2.9,18.2,7.5c4.7,4.7,7.5,11.1,7.5,18.2c0,7.1-2.9,13.5-7.5,18.2
			c-4.7,4.7-11.1,7.5-18.2,7.5c-7.1,0-13.5-2.9-18.2-7.5c-4.7-4.7-7.5-11.1-7.5-18.2c0-7.1,2.9-13.5,7.5-18.2
			C163.1,455.3,169.5,452.4,176.6,452.4 M188.1,466.6c-2.9-2.9-7-4.8-11.5-4.8c-4.5,0-8.6,1.8-11.5,4.8c-2.9,2.9-4.8,7-4.8,11.5
			c0,4.5,1.8,8.6,4.8,11.5c2.9,2.9,7,4.8,11.5,4.8c4.5,0,8.6-1.8,11.5-4.8c2.9-2.9,4.8-7,4.8-11.5
			C192.9,473.7,191.1,469.6,188.1,466.6 M139.6,485.6c1.7-2,4.7-2.2,6.6-0.5c2,1.7,2.2,4.7,0.5,6.6c-3.2,3.8-7.3,6.9-11.9,9
			c-4.4,2-9.3,3.2-14.5,3.2c-9.6,0-18.3-3.9-24.6-10.2c-6.3-6.3-10.2-15-10.2-24.6s3.9-18.3,10.2-24.6c6.3-6.3,15-10.2,24.6-10.2
			c5.1,0,10,1.1,14.5,3.2c4.6,2.1,8.6,5.2,11.9,9c1.7,2,1.5,5-0.5,6.6c-2,1.7-5,1.5-6.6-0.5c-2.4-2.8-5.3-5-8.6-6.5
			c-3.2-1.5-6.8-2.3-10.6-2.3c-7,0-13.3,2.8-17.9,7.4c-4.6,4.6-7.4,10.9-7.4,17.9s2.8,13.3,7.4,17.9c4.6,4.6,10.9,7.4,17.9,7.4
			c3.8,0,7.4-0.8,10.6-2.3C134.3,490.6,137.2,488.4,139.6,485.6 M303.2,496.7c-1.9-1.8-2-4.8-0.2-6.7c1.8-1.9,4.8-2,6.7-0.2
			c1.3,1.2,3.3,2.4,5.7,3.3c2.1,0.8,4.4,1.3,6.6,1.3c3.4,0,7.2-0.4,9.5-1.9c1.1-0.7,1.9-1.8,1.9-3.3c0-2.1-1-3.6-2.5-4.5
			c-2.3-1.4-5.9-2.1-10-2.4c-5.2-0.4-9.5-2-12.6-4.4c-3.7-2.8-5.7-6.7-5.7-11c0-4.5,2.3-8.3,6.3-10.9c3.4-2.2,7.9-3.5,13.1-3.5
			c3.7,0,6.9,0.6,9.7,1.6c2.8,1,5.2,2.5,7.3,4.2c2,1.6,2.4,4.6,0.7,6.6c-1.6,2-4.6,2.4-6.6,0.7c-1.4-1.1-2.9-2-4.6-2.7
			c-1.8-0.7-3.9-1-6.5-1c-3.4,0-6.1,0.7-8,1.9c-1.3,0.8-2,1.9-2,3c0,1.3,0.7,2.6,2,3.6c1.7,1.3,4.3,2.2,7.6,2.5
			c5.4,0.4,10.3,1.5,14.1,3.7c4.5,2.7,7.2,6.7,7.2,12.6c0,5.4-2.6,9-6.4,11.4c-4.2,2.6-9.7,3.3-14.5,3.3c-3.3,0-6.8-0.8-9.9-2
			C308.5,500.6,305.4,498.7,303.2,496.7 M385.9,490.8c2.3-1.3,5.1-0.5,6.4,1.7c1.3,2.3,0.5,5.1-1.7,6.4c-3,1.7-5.8,2.9-8.9,3.7
			c-3.1,0.8-6.2,1.2-9.9,1.2c-7.1,0-13.5-2.9-18.2-7.5c-4.7-4.7-7.5-11.1-7.5-18.2c0-7.1,2.9-13.5,7.5-18.2
			c4.7-4.7,11.1-7.5,18.2-7.5c7,0,13.4,2.8,18,7.4c4.6,4.5,7.6,10.9,7.7,17.8v0.1v0.1l0,0v0.1c-0.1,2.4-2.1,4.4-4.6,4.4l-36.6,0.7
			c0.8,2.5,2.2,4.7,4,6.5c2.9,2.9,7,4.8,11.5,4.8c2.9,0,5.3-0.3,7.5-0.8C381.6,493,383.7,492.1,385.9,490.8 M387.4,473.1
			c-0.8-2.5-2.2-4.8-4.1-6.6c-2.9-2.9-7-4.6-11.4-4.6c-4.5,0-8.6,1.8-11.5,4.8c-2,2-3.4,4.4-4.2,7.1L387.4,473.1z M205.9,457.3
			c0-2.6,2.1-4.7,4.7-4.7c2.6,0,4.7,2.1,4.7,4.7v20.8c0,4.6,1.7,8.7,4.4,11.7c2.6,2.9,6.2,4.6,10.2,4.6s7.5-1.8,10.2-4.6
			c2.7-3,4.4-7.1,4.4-11.7v-20.8c0-2.6,2.1-4.7,4.7-4.7c2.6,0,4.7,2.1,4.7,4.7v20.8c0,7-2.6,13.4-6.9,18.1
			c-4.4,4.7-10.4,7.7-17.1,7.7c-6.7,0-12.7-2.9-17.1-7.7c-4.3-4.6-6.9-11-6.9-18.1L205.9,457.3L205.9,457.3z M270.4,499
			c0,2.6-2.1,4.7-4.7,4.7s-4.7-2.1-4.7-4.7v-41.6c0-2.6,2.1-4.7,4.7-4.7s4.7,2.1,4.7,4.7v1c4.5-3.7,10.3-5.9,16.5-5.9
			c1.5,0,2.9,0.1,4.4,0.4c1.5,0.3,2.9,0.6,4.3,1.1c2.5,0.9,3.7,3.6,2.9,6c-0.9,2.5-3.6,3.8-6,2.9c-0.9-0.3-1.8-0.5-2.7-0.7
			c-0.9-0.2-1.8-0.2-2.9-0.2c-4.6,0-8.7,1.8-11.7,4.8c-3,2.9-4.8,7-4.8,11.4L270.4,499L270.4,499z M39.9,408.3L7.8,431.6
			c-0.1,0.1-0.2,0.2-0.3,0.3l0,0l0,0c-0.2,0.2-0.2,0.5-0.2,0.8s0.1,0.5,0.3,0.8c0.1,0.1,0.2,0.2,0.3,0.3l0,0H8l32.2,23.4
			c0.2,0.2,0.5,0.3,0.8,0.3c0.2,0,0.4-0.1,0.6-0.1c0.2-0.1,0.4-0.2,0.5-0.4c0.2-0.2,0.2-0.5,0.2-0.8v-46.9c0-0.3-0.1-0.6-0.3-0.8
			c-0.1-0.2-0.3-0.3-0.5-0.4c-0.2-0.1-0.4-0.1-0.6-0.1c-0.2,0-0.5,0.1-0.7,0.2L39.9,408.3z"/>
	</g>
</g>
</svg>
