<?xml version="1.0" encoding="UTF-8" standalone="no"?>
<svg width="50px" height="50px" viewBox="0 0 50 50" version="1.1" xmlns="http://www.w3.org/2000/svg" xmlns:xlink="http://www.w3.org/1999/xlink" xmlns:sketch="http://www.bohemiancoding.com/sketch/ns">
    <!-- Generator: Sketch 3.2.2 (9983) - http://www.bohemiancoding.com/sketch -->
    <title>Artboard 2</title>
    <desc>Created with Sketch.</desc>
    <defs></defs>
    <g id="Page-1" stroke="none" stroke-width="1" fill="none" fill-rule="evenodd" sketch:type="MSPage">
        <g id="Artboard-2" sketch:type="MSArtboardGroup" fill="#E7ECEE">
            <path d="M25,50 C38.8071187,50 50,38.8071187 50,25 C50,11.1928813 38.8071187,0 25,0 C11.1928813,0 0,11.1928813 0,25 C0,38.8071187 11.1928813,50 25,50 Z M21.9257812,16.0439453 C23.2793036,17.335944 24.030761,18.8037027 24.1801758,20.4472656 L21.6225586,20.4472656 C21.3325181,19.1992125 20.754643,18.2104529 19.888916,17.480957 C19.023189,16.7514612 17.8081133,16.3867188 16.2436523,16.3867188 C14.3364162,16.3867188 12.7961484,17.0568781 11.6228027,18.3972168 C10.449457,19.7375555 9.86279297,21.7919783 9.86279297,24.5605469 C9.86279297,26.8281363 10.3923287,28.6672293 11.451416,30.0778809 C12.5105033,31.4885324 14.0903215,32.1938477 16.190918,32.1938477 C18.1245214,32.1938477 19.5966746,31.4511793 20.6074219,29.9658203 C21.1435574,29.1835898 21.5434557,28.1552798 21.8071289,26.8808594 L24.3647461,26.8808594 C24.1362293,28.9199321 23.3803775,30.6293876 22.097168,32.0092773 C20.5590743,33.6704185 18.4848763,34.5009766 15.8745117,34.5009766 C13.6245005,34.5009766 11.7348709,33.819831 10.2055664,32.4575195 C8.19286103,30.6557527 7.18652344,27.8740422 7.18652344,24.1123047 C7.18652344,21.2558451 7.94237525,18.9135834 9.45410156,17.0854492 C11.0888754,15.0991112 13.3432473,14.105957 16.2172852,14.105957 C18.6694459,14.105957 20.5722589,14.7519467 21.9257812,16.0439453 Z M27.4892578,14.6333008 L35.8081055,14.6333008 C38.0756949,14.6333008 39.6884718,15.3100518 40.6464844,16.6635742 C41.2089872,17.4633829 41.4902344,18.3862252 41.4902344,19.4321289 C41.4902344,20.6538147 41.1430699,21.6557578 40.4487305,22.4379883 C40.0883771,22.8510763 39.5698276,23.2290022 38.8930664,23.5717773 C39.8862354,23.9497089 40.6289038,24.3759742 41.1210938,24.8505859 C41.9912153,25.6943402 42.4262695,26.8588793 42.4262695,28.3442383 C42.4262695,29.5922914 42.0351602,30.7216746 41.2529297,31.7324219 C40.0839785,33.2441482 38.2251104,34 35.6762695,34 L27.4892578,34 L27.4892578,14.6333008 Z M34.8325195,22.8203125 C35.9399469,22.8203125 36.8012665,22.6665054 37.4165039,22.3588867 C38.3833056,21.8754859 38.8666992,21.0053774 38.8666992,19.7485352 C38.8666992,18.4829038 38.3525442,17.6303733 37.3242188,17.190918 C36.7441377,16.944823 35.8828182,16.8217773 34.7402344,16.8217773 L30.0600586,16.8217773 L30.0600586,22.8203125 L34.8325195,22.8203125 Z M35.7158203,31.7587891 C37.3242268,31.7587891 38.471188,31.2929734 39.1567383,30.3613281 C39.5874045,29.772458 39.8027344,29.060551 39.8027344,28.2255859 C39.8027344,26.8193289 39.1743227,25.8613307 37.9174805,25.3515625 C37.2495084,25.0791002 36.3662164,24.9428711 35.2675781,24.9428711 L30.0600586,24.9428711 L30.0600586,31.7587891 L35.7158203,31.7587891 Z" id="crunchbase.svg" sketch:type="MSShapeGroup"></path>
        </g>
    </g>
</svg>