<?xml version="1.0" encoding="UTF-8" standalone="no"?>
<svg width="50px" height="50px" viewBox="0 0 50 50" version="1.1" xmlns="http://www.w3.org/2000/svg" xmlns:xlink="http://www.w3.org/1999/xlink" xmlns:sketch="http://www.bohemiancoding.com/sketch/ns">
    <!-- Generator: Sketch 3.2.2 (9983) - http://www.bohemiancoding.com/sketch -->
    <title>Artboard 1</title>
    <desc>Created with Sketch.</desc>
    <defs></defs>
    <g id="Page-1" stroke="none" stroke-width="1" fill="none" fill-rule="evenodd" sketch:type="MSPage">
        <g id="Artboard-1" sketch:type="MSArtboardGroup" fill="#E7ECEE">
            <path d="M25,50 C38.8071187,50 50,38.8071187 50,25 C50,11.1928813 38.8071187,0 25,0 C11.1928813,0 0,11.1928813 0,25 C0,38.8071187 11.1928813,50 25,50 Z M22.1058408,10.7825323 C21.7448694,9.85143235 21.2943771,8.30606228 20.4474351,7.89146086 C19.7799474,7.56514273 19.1318491,7.86794615 18.8830883,8.3180259 C18.2316896,9.49788666 18.9004149,11.456208 19.2626239,12.6298807 C20.1491696,15.5081634 21.324905,18.5473362 22.2481666,21.1120894 C22.901628,20.5873402 24.5064036,20.7709199 25.6594494,20.8752922 C24.5802481,17.6533647 23.3735723,14.045301 22.1058408,10.7825323 L22.1058408,10.7825323 Z M35.0896721,13.0568582 C35.424241,11.994571 35.9659044,11.1022498 35.8470932,9.88237275 C35.7753115,9.12783942 35.3244066,8.50985641 34.5686357,8.55523567 C33.4143523,8.62454217 32.7679042,10.3823697 32.3891936,11.3035687 C31.0583437,14.5386974 29.9271625,18.0143361 28.9300564,21.2548278 C30.0628877,21.3695136 31.0538058,21.6257001 32.1523964,21.7758642 C33.133826,19.205748 34.1742487,15.9660813 35.0896721,13.0568582 L35.0896721,13.0568582 Z M18.7415875,36.3702467 C19.5575891,36.6429348 20.6438035,36.4304774 20.7791162,35.65903 C20.9131913,34.8929456 20.2444661,34.1689401 20.0204575,33.811269 C19.1743406,32.4556668 18.6999211,31.8496474 17.6516602,30.7782843 C17.2358211,30.3533694 16.653729,29.6949576 16.0406964,29.640915 C15.0390524,29.5526317 14.2366646,30.6153315 13.9078712,31.2048493 C12.9635701,32.9016211 13.8459904,35.2266894 14.6657049,36.5591895 C16.605462,39.7097477 19.7193043,42.2749135 24.664406,42.2452107 C28.8537367,42.2192208 31.7146928,40.1099103 33.5257378,37.885914 C35.5319136,35.4218202 36.7299261,31.883063 36.4630135,27.6029737 C36.4130963,26.7964605 36.297173,25.9086772 35.8466807,25.1863219 C35.0867843,23.9652072 32.8603128,23.4363326 30.9197307,23.0068798 C29.9972941,22.8030856 28.9506833,22.6496212 27.8397165,22.5332853 C26.369016,22.3802335 23.8628432,21.9643944 23.1953556,22.8175245 C22.6161512,23.5580315 23.0971713,24.7350045 23.3851234,25.1863219 C24.4453479,26.8492655 27.5769294,27.0819373 30.2555433,27.0819373 C31.6424985,27.0819373 33.5591534,26.7684079 33.3363825,28.1248352 C33.2344855,28.7424057 31.690353,29.0959514 30.9197307,29.4037053 C30.0463862,29.7531256 29.2101702,30.3216039 28.6449921,30.8253137 C27.5596027,31.7939546 26.0884896,33.5031026 25.9441011,35.5162916 C25.8079633,37.4114945 26.7976437,37.9374814 26.6066383,39.8751757 C24.5810731,39.5018282 24.3162233,37.3657027 24.1908115,35.0901391 C23.7258804,35.2988837 23.0559175,35.3207482 22.4849639,35.1846104 C23.2671373,38.0373157 20.3793662,39.0872268 18.2667554,38.0756818 C17.4387902,37.6788196 16.5815347,36.8855076 15.9454,36.0381531 C15.2721368,35.1417064 14.5972234,33.9102783 15.2816252,32.8636676 C16.3624766,33.7955925 17.0947329,35.8195075 18.7415875,36.3702467 L18.7415875,36.3702467 Z M16.9412685,25.5666826 C16.8682491,26.4783932 17.5967925,27.5373801 17.9363119,28.1256603 C18.8426595,29.6961952 19.8092377,30.945775 21.016326,32.1532759 C21.5579894,32.6949392 22.4243207,33.5843727 23.2914771,33.480413 C23.7151544,33.4292582 24.2539299,32.9045089 24.3331374,32.4379276 C24.4767008,31.600474 23.8743943,30.551388 23.5748912,29.8315079 C22.9259678,28.2712865 22.0711875,26.6689861 21.2060938,25.4722112 C20.6207014,24.6632228 19.9041216,23.6681794 18.7898545,23.7663636 C18.0798754,23.8282444 17.0114001,24.6850873 16.9412685,25.5666826 L16.9412685,25.5666826 Z M25.8970717,31.2531164 C26.6895586,30.3393431 27.599619,29.5435559 28.5505208,28.7890226 C27.1008597,28.7535442 25.751033,28.3669954 24.6648185,28.1256603 C25.149964,29.0934761 25.5513642,30.1458624 25.8970717,31.2531164 L25.8970717,31.2531164 Z" id="angellist.svg" sketch:type="MSShapeGroup"></path>
        </g>
    </g>
</svg>