<?xml version="1.0" encoding="utf-8"?>
<!-- Generator: Adobe Illustrator 18.0.0, SVG Export Plug-In . SVG Version: 6.00 Build 0)  -->
<svg version="1.1" id="Layer_1" xmlns="http://www.w3.org/2000/svg" xmlns:xlink="http://www.w3.org/1999/xlink" x="0px" y="0px"
	 viewBox="0 0 50 50" enable-background="new 0 0 50 50" xml:space="preserve">
<g>
	<g>
		<path fill="#E7ECEE" d="M25,0C11.2,0,0,11.2,0,25c0,13.8,11.2,25,25,25s25-11.2,25-25C50,11.2,38.8,0,25,0z M32,15.9
			c0,0.3-0.3,0.6-0.6,0.6l-2.4,0c-1.7,0-2,0.7-2,2v2.7h4.2c0.2,0,0.3,0.1,0.4,0.2c0.1,0.1,0.2,0.3,0.2,0.4l0,4.6
			c0,0.3-0.3,0.6-0.6,0.6H27v11.6c0,0.3-0.3,0.6-0.6,0.6h-4.7c-0.3,0-0.6-0.3-0.6-0.6V26.8h-3.6c-0.3,0-0.6-0.3-0.6-0.6v-4.6
			c0-0.3,0.3-0.6,0.6-0.6h3.6v-3.2c0-4.2,2.6-6.9,6.7-6.9l3.6,0c0.3,0,0.6,0.3,0.6,0.6V15.9z"/>
	</g>
</g>
</svg>
