<?xml version="1.0" encoding="utf-8"?>
<!-- Generator: Adobe Illustrator 18.0.0, SVG Export Plug-In . SVG Version: 6.00 Build 0)  -->
<svg version="1.1" id="Layer_1" xmlns="http://www.w3.org/2000/svg" xmlns:xlink="http://www.w3.org/1999/xlink" x="0px" y="0px"
	 viewBox="0 0 50 50" enable-background="new 0 0 50 50" xml:space="preserve">
<g>
	<g>
		<path fill="#E7ECEE" d="M18.3,12.2c-0.9,0.2-1.6,1-1.9,2.1c-0.4,1.1-0.4,2.3-0.1,3.6c0.6,2.4,2.3,4.1,3.9,4.1c0.2,0,0.4,0,0.6-0.1
			c1.8-0.5,3-3.3,2.2-6.1c-0.8-2.9-2.1-3.7-4.1-3.7C18.7,12.1,18.5,12.2,18.3,12.2z M19.6,28.9c-1.5,0.1-2.8,0.7-3.8,1.6
			c-1,0.9-1.5,2-1.4,3.2c0.1,2.4,2.7,3.8,5.7,3.6c3-0.2,5-2,4.9-4.4c-0.1-2.3-2.1-4-4.9-4C19.9,28.9,19.8,28.9,19.6,28.9z M25,0
			C11.2,0,0,11.2,0,25c0,13.8,11.2,25,25,25s25-11.2,25-25C50,11.2,38.8,0,25,0z M28.1,10.2c0,0.9-1.5,1-2.6,1.2
			c-0.4,0.1-1.1,0.1-1.3,0.2c1.9,1.1,2.3,2.7,2.3,5.2c0,2.8-1.1,4.3-2.2,5.4c-0.7,0.6-1.3,1.2-1.3,1.8c0,0.7,0.8,1.4,1.7,2.2
			c1.5,1.3,3.5,3.1,3.5,6.1c0,3.1-1.3,5.3-3.9,6.6c-2,1-4.1,1.1-5,1.1c-0.2,0-0.3,0-0.3,0c0,0-0.1,0-0.2,0c-1.3,0-7.8-0.3-7.8-6.3
			c0-5.9,7-6.4,9.2-6.4l0.1,0c-1.2-1.7-1-3.4-1-3.4c-0.1,0-0.3,0-0.5,0c-0.8,0-2.4-0.1-3.7-1c-1.6-1.1-2.5-2.9-2.5-5.5
			c0-7.2,7.7-7.5,7.8-7.5h7.7V10.2z M41,25.5h-4.8v5.3h-3.1v-5.3h-4.8v-3.3h4.8v-5.3h3.1v5.3H41V25.5z"/>
	</g>
</g>
</svg>
