<?xml version="1.0" encoding="utf-8"?>
<!-- Generator: Adobe Illustrator 18.0.0, SVG Export Plug-In . SVG Version: 6.00 Build 0)  -->
<svg version="1.1" id="Layer_1" xmlns="http://www.w3.org/2000/svg" xmlns:xlink="http://www.w3.org/1999/xlink" x="0px" y="0px"
	 viewBox="0 0 50 50" enable-background="new 0 0 50 50" xml:space="preserve">
<g>
	<g>
		<path fill="#E7ECEE" d="M25,0C11.2,0,0,11.2,0,25c0,13.8,11.2,25,25,25s25-11.2,25-25C50,11.2,38.8,0,25,0z M14,35V17h6l0,18H14z
			 M17,16c-1.7,0-3-1.3-3-3c0-1.7,1.3-3,3-3c1.7,0,3,1.3,3,3C20,14.7,18.7,16,17,16z M38,35h-5.3V23.9c0-1.3-0.4-2.2-2-2.2
			c-2.8,0-3.3,2.2-3.3,2.2V35H22V17h5.3v1.7c0.8-0.6,2.7-1.7,5.3-1.7c1.7,0,5.3,1,5.3,7V35z"/>
	</g>
</g>
</svg>
