<?xml version="1.0" encoding="utf-8"?>
<!-- Generator: Adobe Illustrator 18.0.0, SVG Export Plug-In . SVG Version: 6.00 Build 0)  -->
<svg version="1.1" id="Layer_1" xmlns="http://www.w3.org/2000/svg" xmlns:xlink="http://www.w3.org/1999/xlink" x="0px" y="0px"
	 viewBox="0 0 50 50" enable-background="new 0 0 50 50" xml:space="preserve">
<g>
	<g>
		<path fill="#E7ECEE" d="M25,0C11.2,0,0,11.2,0,25c0,13.8,11.2,25,25,25s25-11.2,25-25C50,11.2,38.8,0,25,0z M34.5,20l0,0.7
			c0,6.7-5,14.4-14,14.4c-2.8,0-5.4-0.8-7.5-2.3c0.4,0,0.8,0.1,1.2,0.1c2.3,0,4.4-0.8,6.1-2.2c-2.2,0-4-1.5-4.6-3.5
			c0.3,0.1,0.6,0.1,0.9,0.1c0.4,0,0.9-0.1,1.3-0.2c-2.3-0.5-3.9-2.5-3.9-5V22c0.7,0.4,1.4,0.6,2.2,0.6c-1.3-0.9-2.2-2.5-2.2-4.2
			c0-0.9,0.2-1.8,0.7-2.5c2.4,3.1,6.1,5.1,10.1,5.3c-0.1-0.4-0.1-0.8-0.1-1.2c0-2.8,2.2-5,4.9-5c1.4,0,2.7,0.6,3.6,1.6
			c1.1-0.2,2.2-0.6,3.1-1.2c-0.4,1.2-1.1,2.2-2.2,2.8c1-0.1,1.9-0.4,2.8-0.8C36.3,18.4,35.5,19.3,34.5,20z"/>
	</g>
</g>
</svg>
